<?xml version="1.0" encoding="utf-8"?>
<svg viewBox="0 0 500 500" xmlns="http://www.w3.org/2000/svg">
  <g transform="matrix(1, 0, 0, 1, 29.760263, -128.874512)">
    <path d="M 349.719 200.904 L 192.919 200.904 C 181.036 200.904 169.642 205.623 161.239 214.025 C 152.836 222.427 148.118 233.822 148.118 245.705 L 148.118 292.408 C 115.524 297.908 86.098 315.232 65.47 341.06 C 44.842 366.888 34.454 399.415 36.298 432.419 C 38.137 465.423 52.079 496.591 75.454 519.966 C 98.829 543.341 129.997 557.282 163.001 559.122 C 196.005 560.966 228.532 550.579 254.36 529.95 C 280.188 509.321 297.512 479.895 303.012 447.302 L 349.715 447.302 C 361.598 447.302 372.992 442.583 381.395 434.181 C 389.798 425.779 394.516 414.384 394.516 402.501 L 394.516 245.701 C 394.516 233.818 389.797 222.424 381.395 214.021 C 372.992 205.618 361.598 200.9 349.715 200.9 L 349.719 200.904 Z M 170.519 514.504 C 141.304 514.355 113.996 499.965 97.347 475.953 C 80.702 451.941 76.812 421.32 86.921 393.906 C 97.026 366.492 119.87 345.73 148.12 338.273 L 148.12 402.503 C 148.12 414.386 152.838 425.78 161.241 434.183 C 169.643 442.586 181.038 447.304 192.921 447.304 L 257.151 447.304 C 252.19 466.519 240.991 483.538 225.315 495.702 C 209.635 507.862 190.362 514.475 170.518 514.503 L 170.519 514.504 Z M 192.917 338.274 L 192.92 338.274 C 208.377 342.285 222.482 350.352 233.779 361.645 C 245.072 372.942 253.138 387.047 257.15 402.504 L 192.92 402.504 L 192.917 338.274 Z M 349.717 402.504 L 303.014 402.504 C 298.322 375.012 285.209 349.656 265.487 329.938 C 245.768 310.215 220.413 297.102 192.921 292.411 L 192.921 245.708 L 349.721 245.708 L 349.717 402.504 Z"/>
  </g>
</svg>