<?xml version="1.0" encoding="utf-8"?>
<svg viewBox="0 0 500 500" xmlns="http://www.w3.org/2000/svg">
  <g transform="matrix(1, 0, 0, 1, 19.913321, -237.713455)">
    <path d="M 405.016 273.005 L 169.816 273.005 C 159.421 273.005 149.449 277.134 142.097 284.485 C 134.746 291.837 130.617 301.809 130.617 312.204 L 130.617 385.005 L 57.816 385.005 C 47.421 385.005 37.449 389.134 30.097 396.485 C 22.746 403.837 18.617 413.809 18.617 424.204 L 18.617 659.404 C 18.617 669.799 22.746 679.771 30.097 687.123 C 37.449 694.475 47.421 698.603 57.816 698.603 L 293.016 698.603 C 303.411 698.603 313.383 694.474 320.735 687.123 C 328.087 679.772 332.215 669.799 332.215 659.404 L 332.215 586.603 L 405.016 586.603 C 415.411 586.603 425.383 582.474 432.735 575.123 C 440.087 567.772 444.215 557.799 444.215 547.404 L 444.215 312.204 C 444.215 301.809 440.086 291.837 432.735 284.485 C 425.384 277.134 415.411 273.005 405.016 273.005 L 405.016 273.005 Z M 298.616 659.405 C 298.616 660.89 298.026 662.311 296.976 663.362 C 295.925 664.413 294.503 665.003 293.019 665.003 L 57.819 665.003 C 54.729 665.003 52.221 662.495 52.221 659.405 L 52.221 424.205 C 52.221 421.115 54.729 418.607 57.819 418.607 L 130.62 418.607 L 130.62 547.407 C 130.62 557.802 134.749 567.774 142.1 575.126 C 149.451 582.478 159.424 586.606 169.819 586.606 L 298.619 586.606 L 298.616 659.405 Z M 410.616 547.405 C 410.616 548.89 410.026 550.311 408.976 551.362 C 407.925 552.413 406.503 553.003 405.019 553.003 L 169.819 553.003 C 166.729 553.003 164.221 550.495 164.221 547.405 L 164.221 312.205 C 164.221 309.115 166.729 306.607 169.819 306.607 L 405.019 306.607 C 406.503 306.607 407.925 307.197 408.976 308.248 C 410.026 309.299 410.616 310.721 410.616 312.205 L 410.616 547.405 Z"/>
  </g>
</svg>